# xmcd
#
# Track frame offsets:
#	150
#	14715
#	28556
#	43312
#	57221
#	74519
#
# Disc length: 1223 seconds
# Revision: 0
# Processed by: cddbd v1.5.2PL0 Copyright (c) Steve Scherf et al.
# Submitted via: dBpowerAMP V12.0
#
DISCID=5404c506
DTITLE=Allie Louise - Allie Louise EP
DYEAR=2016
DGENRE=Country
TTITLE0=Perfect Storm
TTITLE1=Stilettos
TTITLE2=Diamond Ring
TTITLE3=It's Gettin' Old
TTITLE4=Tell Me Now
TTITLE5=Somethin' 'Bout Nothin'
EXTD=
EXTT0=
EXTT1=
EXTT2=
EXTT3=
EXTT4=
EXTT5=
PLAYORDER=
